<svg viewBox="0 0 140 140" fill="none" xmlns="http://www.w3.org/2000/svg"><path d="M19.686 21.625a3.447 3.447 0 0 0-3.447 3.998l14.632 88.823a4.688 4.688 0 0 0 4.584 3.912h70.193a3.448 3.448 0 0 0 3.446-2.896l14.666-89.804a3.436 3.436 0 0 0-.791-2.803 3.458 3.458 0 0 0-2.655-1.195l-100.628-.035Zm61.61 64.195H58.894l-6.066-31.675h33.898L81.297 85.82Z" fill="#1E88E5"/><path d="M119.073 54.145H86.725L81.296 85.82H58.893l-26.454 31.417a4.67 4.67 0 0 0 3.016 1.138h70.21a3.452 3.452 0 0 0 3.447-2.895l9.961-61.335Z" fill="url(#bitbucket-gradient)"/><defs><linearGradient id="bitbucket-gradient" x1="126.552" y1="63.003" x2="73.093" y2="104.743" gradientUnits="userSpaceOnUse"><stop offset=".18" stop-color="#1565C0"/><stop offset="1" stop-color="#1E88E5"/></linearGradient></defs></svg>