<svg viewBox="0 0 140 140" fill="none" xmlns="http://www.w3.org/2000/svg"><path d="M123.278 45.594c-.001-2.021-.433-3.808-1.308-5.34-.858-1.509-2.145-2.773-3.87-3.772-14.242-8.212-28.497-16.398-42.735-24.619-3.838-2.216-7.56-2.134-11.37.113-5.668 3.343-34.05 19.603-42.506 24.502-3.483 2.017-5.178 5.102-5.179 9.112-.005 16.515 0 33.03-.005 49.544 0 1.978.415 3.73 1.25 5.24.86 1.553 2.164 2.851 3.93 3.873 8.457 4.899 36.842 21.158 42.509 24.502 3.811 2.249 7.533 2.329 11.373.113 14.237-8.221 28.494-16.408 42.738-24.62 1.765-1.021 3.069-2.32 3.928-3.872.835-1.51 1.251-3.262 1.251-5.24 0 0 0-33.02-.006-49.536Z" fill="#A179DC"/><path d="m69.958 70.201-52.403 30.173c.86 1.553 2.164 2.851 3.93 3.873 8.457 4.899 36.842 21.158 42.509 24.502 3.811 2.249 7.533 2.329 11.373.113 14.237-8.221 28.494-16.408 42.738-24.62 1.765-1.021 3.069-2.32 3.928-3.872L69.958 70.201Z" fill="#280068"/><path d="M123.278 45.594c-.001-2.022-.433-3.808-1.308-5.34L69.958 70.201l52.075 30.168c.835-1.51 1.25-3.262 1.251-5.24 0 0 0-33.02-.006-49.536" fill="#390091"/><path d="M100.81 58.922v5.64h5.64v-5.64h2.82v5.64h5.64v2.82h-5.64v5.64h5.64v2.82h-5.64v5.64h-2.82v-5.64h-5.64v5.64h-2.82v-5.64h-5.639v-2.82h5.64v-5.64h-5.64v-2.82h5.64v-5.64h2.819Zm5.64 8.46h-5.64v5.64h5.64v-5.64Z" fill="#fff"/><path d="M70.073 30.599c14.71 0 27.553 7.988 34.432 19.863l-.067-.114-17.308 9.965c-3.41-5.773-9.66-9.67-16.832-9.75l-.226-.001c-10.935 0-19.8 8.865-19.8 19.8a19.706 19.706 0 0 0 2.611 9.824c3.413 5.958 9.83 9.977 17.19 9.977 7.405 0 13.858-4.07 17.254-10.092l-.083.145 17.282 10.011c-6.804 11.775-19.471 19.739-34.01 19.897l-.443.003c-14.757 0-27.636-8.038-34.498-19.976a39.583 39.583 0 0 1-5.267-19.789c0-21.96 17.803-39.764 39.764-39.764Z" fill="#fff"/></svg>