<svg viewBox="0 0 24 24" fill="none" xmlns="http://www.w3.org/2000/svg"><path d="M12 13.927a1.927 1.927 0 1 0 0-3.854 1.927 1.927 0 0 0 0 3.854Z" fill="#61DAFB"/><path d="M12 15.948c5.71 0 10.34-1.768 10.34-3.948 0-2.18-4.63-3.948-10.34-3.948S1.66 9.82 1.66 12c0 2.18 4.63 3.948 10.34 3.948Z" stroke="#61DAFB" stroke-width=".94" fill="transparent"/><path d="M8.581 13.974c2.855 4.945 6.7 8.07 8.588 6.98 1.889-1.09 1.105-5.983-1.75-10.928-2.856-4.945-6.7-8.07-8.589-6.98-1.888 1.09-1.104 5.983 1.751 10.928Z" stroke="#61DAFB" stroke-width=".94" fill="transparent"/><path d="M8.581 10.026c-2.855 4.945-3.639 9.838-1.75 10.928 1.887 1.09 5.732-2.035 8.588-6.98 2.855-4.945 3.639-9.838 1.75-10.928-1.888-1.09-5.733 2.035-8.588 6.98Z" stroke="#61DAFB" stroke-width=".94" fill="transparent"/></svg>