<svg viewBox="0 0 300 300" fill="none" xmlns="http://www.w3.org/2000/svg"><path d="M267 125.043 108.564 37l106.175 157.729 21.657-14.361L267 125.046v-.003Z" fill="url(#rider-gradient-1)"/><path d="m203.907 89.028-20.011-48.496-43.785 43.315L158 240.636 200.614 263 267 224.157 203.907 89.028Z" fill="url(#rider-gradient-2)"/><path d="M108.564 37 41 82.436 66.19 237.81l64.739 24.718 83.807-67.8L108.564 37Z" fill="url(#rider-gradient-3)"/><path d="M221.8 82.2H86.2v135.6h135.6V82.2Z" fill="#000"/><path d="M152.118 194.07h-50.85v8.662h50.85v-8.662Zm3.496-94.92h19.963c16.197 0 27.12 10.829 27.12 25.021 0 14.19-10.923 25.39-27.12 25.39l-19.963.374V99.15Zm11.3 10.083v30.62h8.663c9.04 0 15.445-5.973 15.445-14.936 0-8.962-6.028-15.313-15.445-15.313l-8.663-.371ZM103.441 99.15h23.245c6.548 0 11.287 1.808 14.9 5.192 2.935 2.934 4.288 6.77 4.288 11.509v.226c0 4.065-.904 7.449-2.935 10.157a18.198 18.198 0 0 1-7.9 5.644l12.417 18.057h-13.092l-10.609-15.574h-9.253v15.574h-11.287V99.15h.226Zm22.571 24.602c2.708 0 4.965-.678 6.321-2.031 1.579-1.356 2.257-3.161 2.257-5.192v-.226c0-2.482-.678-4.287-2.26-5.417-1.579-1.13-3.61-1.805-6.544-1.805h-11.058v14.671h11.284Z" fill="#fff"/><defs><linearGradient id="rider-gradient-1" x1="252.471" y1="166.469" x2="78.264" y2="66.499" gradientUnits="userSpaceOnUse"><stop stop-color="#DD1265"/><stop offset=".483" stop-color="#DD1265"/><stop offset=".942" stop-color="#FDB60D"/></linearGradient><linearGradient id="rider-gradient-2" x1="148.886" y1="56.733" x2="217.942" y2="247.422" gradientUnits="userSpaceOnUse"><stop offset=".139" stop-color="#087CFA"/><stop offset=".476" stop-color="#DD1265"/><stop offset=".958" stop-color="#087CFA"/></linearGradient><linearGradient id="rider-gradient-3" x1="97.161" y1="62.615" x2="148.169" y2="243.884" gradientUnits="userSpaceOnUse"><stop offset=".278" stop-color="#DD1265"/><stop offset=".968" stop-color="#FDB60D"/></linearGradient></defs></svg>