<svg viewBox="0 0 300 300" fill="none" xmlns="http://www.w3.org/2000/svg"><path d="m74 233.003-40-30.001a9.917 9.917 0 0 1-4-8v-90a9.922 9.922 0 0 1 4-8l40-30a9.92 9.92 0 0 0-4 8v150a9.922 9.922 0 0 0 4 8.001Z" fill="#5E438F"/><path d="M265.551 71.65a10.063 10.063 0 0 0-5.55-1.65 9.7 9.7 0 0 0-6.9 2.8l-.7.7-164.8 158.001-.7.699a9.684 9.684 0 0 1-6.9 2.799 10.058 10.058 0 0 1-6-1.998L34 203a9.998 9.998 0 0 0 13.6-1.5L192.3 33.5a9.871 9.871 0 0 1 7.551-3.5 10.064 10.064 0 0 1 5.55 1.65l60.15 40Z" fill="url(#vs-gradient-1)"/><path d="m265.551 228.351-60 39.999a10.121 10.121 0 0 1-13.151-1.8l-63.949-74.199-36.45-42.4-44.4-51.5A10.055 10.055 0 0 0 34 97l40-30a10.059 10.059 0 0 1 6-2 9.703 9.703 0 0 1 6.9 2.8l.7.7L252.4 226.5l.7.701a9.68 9.68 0 0 0 3.17 2.087 9.665 9.665 0 0 0 3.73.713c1.97.005 3.902-.569 5.55-1.65Z" fill="url(#vs-gradient-2)"/><path d="M270 80v140.001a10.032 10.032 0 0 1-1.181 4.731c-.775 1.457-1.9 2.7-3.27 3.619l-60 39.999a10.05 10.05 0 0 0 3.271-3.617 10.053 10.053 0 0 0 1.18-4.732l-.15-220a9.978 9.978 0 0 0-4.451-8.35l60.15 40A10.102 10.102 0 0 1 270 80Z" fill="url(#vs-gradient-3)"/><defs><linearGradient id="vs-gradient-1" x1="225" y1="30" x2="46.79" y2="209.367" gradientUnits="userSpaceOnUse"><stop stop-color="#7252AA"/><stop offset="1" stop-color="#7252AA"/></linearGradient><linearGradient id="vs-gradient-2" x1="52.5" y1="73.75" x2="219.999" y2="261.249" gradientUnits="userSpaceOnUse"><stop stop-color="#AE7FE2"/><stop offset="1" stop-color="#9A70D4"/></linearGradient><linearGradient id="vs-gradient-3" x1="236.989" y1="26.824" x2="236.989" y2="268.149" gradientUnits="userSpaceOnUse"><stop stop-color="#D59DFF"/><stop offset="1" stop-color="#C18EF1"/></linearGradient></defs></svg>