<svg viewBox="0 0 300 300" fill="none"><path d="m261.507 55.91-49.451-23.809A14.949 14.949 0 0 0 195 35L33.117 182.6c-4.355 3.97-4.35 10.825.01 14.789L46.35 209.41a10 10 0 0 0 12.771.567l194.945-147.89C260.606 57.128 270 61.792 270 70v-.574a15 15 0 0 0-8.493-13.515Z" fill="#0065A9"/><path d="m261.507 244.089-49.451 23.81A14.95 14.95 0 0 1 195 265L33.117 117.401c-4.355-3.971-4.35-10.826.01-14.789L46.35 90.59a10 10 0 0 1 12.771-.567l194.945 147.889c6.54 4.962 15.934.297 15.934-7.912v.574a15 15 0 0 1-8.493 13.515Z" fill="#007ACC"/><path d="M212.059 267.903A14.956 14.956 0 0 1 195 265c5.535 5.535 15 1.615 15-6.213V41.213c0-7.828-9.465-11.748-15-6.213a14.958 14.958 0 0 1 17.059-2.903l49.442 23.777A15 15 0 0 1 270 69.392v161.217a15 15 0 0 1-8.499 13.518l-49.442 23.776Z" fill="#1F9CF0"/></svg>