<svg viewBox="0 0 21 21" xmlns="http://www.w3.org/2000/svg"><path fill-rule="evenodd" clip-rule="evenodd" d="M6.377 4.31h-1.04a.873.873 0 0 0-.874.874v10.952c0 .482.391.873.873.873h5.2a.952.952 0 1 1 0 1.905h-5.2a2.778 2.778 0 0 1-2.777-2.778V5.184a2.778 2.778 0 0 1 2.777-2.778h1.04A2.779 2.779 0 0 1 8.987.58h1.826c1.2 0 2.222.76 2.61 1.826h1.041a2.778 2.778 0 0 1 2.778 2.778v4.563a.952.952 0 1 1-1.905 0V5.184a.873.873 0 0 0-.873-.873h-1.04a2.779 2.779 0 0 1-2.61 1.825H8.986c-1.2 0-2.222-.76-2.61-1.825Zm1.737-.935c.01.474.396.856.873.856h1.825a.873.873 0 0 0 0-1.746H8.987a.873.873 0 0 0-.873.856v.034Zm-1.905 5.46c0-.527.426-.953.952-.953h3.651a.952.952 0 0 1 0 1.905h-3.65a.952.952 0 0 1-.953-.953Zm.952 2.698a.952.952 0 0 0 0 1.905H9.9a.952.952 0 0 0 0-1.905H7.16Zm7.758 1.905a1.33 1.33 0 1 0 0 2.658 1.33 1.33 0 0 0 0-2.659Zm-3.234 1.329a3.234 3.234 0 1 1 6.094 1.512l1.921 1.922a.952.952 0 0 1-1.347 1.346l-1.921-1.92a3.234 3.234 0 0 1-4.747-2.86Z" fill="#252B58"/></svg>