<svg viewBox="0 0 18 18"><path d="M4.946 1.309a.6.6 0 0 1 .6-.6h.94a.6.6 0 0 1 .6.6v1.508a.6.6 0 0 1-.6.6h-.94a.6.6 0 0 1-.6-.6V1.31Zm5.967 0a.6.6 0 0 1 .6-.6h.94a.6.6 0 0 1 .6.6v1.508a.6.6 0 0 1-.6.6h-.94a.6.6 0 0 1-.6-.6V1.31Z"/><path d="M4.946 2.128h2.141v.69a.6.6 0 0 1-.6.6h-.94a.6.6 0 0 1-.6-.6v-.69Z"/><path fill-rule="evenodd" clip-rule="evenodd" d="M3.646 2.209v.608a1.9 1.9 0 0 0 1.9 1.9h.941a1.9 1.9 0 0 0 1.9-1.9v-.69h1.226v.69c0 1.05.85 1.9 1.9 1.9h.94a1.9 1.9 0 0 0 1.9-1.9V2.21a2.916 2.916 0 0 1 2.228 2.834v9.333a2.915 2.915 0 0 1-2.915 2.915H4.333a2.915 2.915 0 0 1-2.915-2.915V5.043c0-1.374.95-2.525 2.228-2.834Zm-.398 12.167V6.564h11.503v7.812c0 .6-.486 1.085-1.085 1.085H4.333c-.6 0-1.085-.486-1.085-1.085Z"/><path d="M10.913 2.128h2.14v.69a.6.6 0 0 1-.6.6h-.94a.6.6 0 0 1-.6-.6v-.69Z"/><path fill-rule="evenodd" clip-rule="evenodd" d="M9.729 8.88a.729.729 0 0 0-1.458 0v1.285H6.986a.729.729 0 0 0 0 1.458H8.27v1.285a.729.729 0 0 0 1.458 0v-1.285h1.285a.729.729 0 1 0 0-1.458H9.729V8.88Z"/></svg>