<svg viewBox="0 0 18 18"><path fill-rule="evenodd" clip-rule="evenodd" d="M2.993 1.193a1.8 1.8 0 0 0-1.8 1.8v10.298a3.516 3.516 0 0 0 3.516 3.516h9.439a2.658 2.658 0 0 0 2.658-2.658v-9.44a1.8 1.8 0 0 0-1.8-1.8h-1.634a1.8 1.8 0 0 0-1.799-1.716h-8.58Zm1.716 13.73h6.895a2.659 2.659 0 0 1-.115-.774V3.078H3.077V13.29c0 .9.73 1.632 1.632 1.632Zm8.665-.774V4.794h1.548v9.355a.774.774 0 0 1-1.548 0ZM5.756 4.866a.89.89 0 1 0 0 1.78H9a.89.89 0 1 0 0-1.78H5.756ZM4.866 9a.89.89 0 0 1 .89-.89H9a.89.89 0 1 1 0 1.78H5.756a.89.89 0 0 1-.89-.89Zm.89 2.354a.89.89 0 0 0 0 1.78H9a.89.89 0 1 0 0-1.78H5.756Z"/></svg>