<svg width="14" height="14" viewBox="0 0 14 14" fill="none" xmlns="http://www.w3.org/2000/svg">
<path fill-rule="evenodd" clip-rule="evenodd" d="M7.00006 1.91797C4.1933 1.91797 1.91797 4.1933 1.91797 7.00006C1.91797 9.80682 4.1933 12.0822 7.00006 12.0822C9.80682 12.0822 12.0822 9.80682 12.0822 7.00006C12.0822 4.1933 9.80682 1.91797 7.00006 1.91797ZM0.417969 7.00006C0.417969 3.36487 3.36487 0.417969 7.00006 0.417969C10.6352 0.417969 13.5822 3.36487 13.5822 7.00006C13.5822 10.6352 10.6352 13.5822 7.00006 13.5822C3.36487 13.5822 0.417969 10.6352 0.417969 7.00006Z"/>
<path fill-rule="evenodd" clip-rule="evenodd" d="M6.99902 3.625C7.41324 3.625 7.74902 3.96079 7.74902 4.375V6.81031C7.74902 7.22453 7.41324 7.56031 6.99902 7.56031C6.58481 7.56031 6.24902 7.22453 6.24902 6.81031V4.375C6.24902 3.96079 6.58481 3.625 6.99902 3.625Z"/>
<path fill-rule="evenodd" clip-rule="evenodd" d="M6.25 9.30103C6.25 8.88681 6.58579 8.55103 7 8.55103H7.00648C7.42069 8.55103 7.75648 8.88681 7.75648 9.30103C7.75648 9.71524 7.42069 10.051 7.00648 10.051H7C6.58579 10.051 6.25 9.71524 6.25 9.30103Z"/>
</svg>
