<svg width="38" height="38" viewBox="0 0 38 38" fill="none" xmlns="http://www.w3.org/2000/svg"><path fill="#fff" d="M0 0h38v38H0z"/><path fill-rule="evenodd" clip-rule="evenodd" d="M15.041 13.338h-.998a.839.839 0 0 0-.84.839V24.69c0 .463.376.838.839.838h4.992a.914.914 0 0 1 0 1.83h-4.992a2.667 2.667 0 0 1-2.666-2.668V14.177a2.667 2.667 0 0 1 2.666-2.667h.998a2.669 2.669 0 0 1 2.507-1.753H19.3c1.152 0 2.133.73 2.505 1.753h1a2.666 2.666 0 0 1 2.666 2.667v4.38a.914.914 0 1 1-1.828 0v-4.38a.838.838 0 0 0-.838-.838h-.999a2.667 2.667 0 0 1-2.505 1.752h-1.755a2.666 2.666 0 0 1-2.506-1.752l.001-.001Zm1.668-.898c.01.455.38.822.838.822h1.752a.838.838 0 1 0 0-1.676h-1.752a.838.838 0 0 0-.838.821v.033Zm-1.83 5.242c0-.506.41-.915.915-.915h3.505a.915.915 0 0 1 0 1.828h-3.504a.913.913 0 0 1-.915-.915v.002Zm.915 2.59a.914.914 0 0 0 0 1.828h2.63a.914.914 0 1 0 0-1.829h-2.631ZM23.24 22.1a1.278 1.278 0 0 0-.934 2.196 1.278 1.278 0 0 0 .934.356 1.277 1.277 0 0 0 0-2.553v.001Zm-3.104 1.276a3.105 3.105 0 1 1 5.85 1.452l1.844 1.845a.914.914 0 0 1-1.293 1.292l-1.844-1.843a3.105 3.105 0 0 1-4.557-2.746Z" fill="#252B58"/></svg>