<svg width="22" height="22" viewBox="0 0 22 22" fill="none" xmlns="http://www.w3.org/2000/svg">
<path fill-rule="evenodd" clip-rule="evenodd" d="M11.603 4.22804C13.1684 2.66259 15.7065 2.66259 17.272 4.22804C18.8374 5.7935 18.8374 8.3316 17.272 9.89705L13.7751 13.3939C13.0273 14.1553 12.0048 14.5842 10.9375 14.5842C9.86849 14.5842 8.84451 14.154 8.09639 13.3904C7.74273 13.0295 7.74864 12.4501 8.10959 12.0965C8.47055 11.7428 9.04987 11.7487 9.40353 12.1097C9.80745 12.5219 10.3603 12.7542 10.9375 12.7542C11.5146 12.7542 12.0675 12.5219 12.4714 12.1097L12.4779 12.103L12.478 12.103L15.978 8.60304C16.8288 7.75225 16.8288 6.37284 15.978 5.52205C15.1272 4.67126 13.7478 4.67126 12.897 5.52205L12.4595 5.95955C12.1021 6.31688 11.5228 6.31688 11.1655 5.95955C10.8081 5.60222 10.8081 5.02287 11.1655 4.66554L11.603 4.22804Z" fill="#6D7285"/>
<path fill-rule="evenodd" clip-rule="evenodd" d="M7.2247 8.60606C7.97252 7.84472 8.99498 7.41577 10.0623 7.41577C11.1313 7.41577 12.1553 7.84605 12.9034 8.6096C13.257 8.97056 13.2511 9.54987 12.8902 9.90354C12.5292 10.2572 11.9499 10.2513 11.5962 9.89033C11.1923 9.47808 10.6395 9.24577 10.0623 9.24577C9.48515 9.24577 8.9323 9.47808 8.52837 9.89033L8.52184 9.897L8.52181 9.89697L5.02181 13.397C4.17101 14.2478 4.17101 15.6272 5.02181 16.478C5.8726 17.3288 7.25201 17.3288 8.1028 16.478L8.5403 16.0405C8.89763 15.6831 9.47698 15.6831 9.83431 16.0405C10.1916 16.3978 10.1916 16.9771 9.83431 17.3345L9.39681 17.772C7.83135 19.3374 5.29325 19.3374 3.7278 17.772C2.16235 16.2065 2.16235 13.6684 3.7278 12.103L7.2247 8.60606Z" fill="#6D7285"/>
</svg>
