<svg width="40" height="26" viewBox="0 0 40 26" fill="none" xmlns="http://www.w3.org/2000/svg">
<path fill-rule="evenodd" clip-rule="evenodd" d="M28.4577 0.38186H11.6135L11.4432 0.381848C9.7042 0.381667 8.12894 0.381503 6.85132 0.553274C5.45158 0.741465 3.99791 1.18079 2.80517 2.37353C1.61243 3.56627 1.17311 5.01994 0.984915 6.41968C0.813144 7.6973 0.813308 9.27256 0.813488 11.0116L0.8135 11.1819V14.8884L0.813488 15.0586C0.813308 16.7977 0.813144 18.3729 0.984915 19.6505C1.17311 21.0503 1.61243 22.5039 2.80517 23.6967C3.99791 24.8894 5.45158 25.3288 6.85132 25.5169C8.12893 25.6887 9.70418 25.6886 11.4432 25.6884L11.6135 25.6884H28.4577L28.628 25.6884C30.367 25.6886 31.9422 25.6887 33.2198 25.5169C34.6196 25.3288 36.0732 24.8894 37.266 23.6967C38.4587 22.5039 38.898 21.0503 39.0862 19.6505C39.258 18.373 39.2578 16.7978 39.2577 15.0589L39.2577 14.8884V11.1819L39.2577 11.0116C39.2578 9.27266 39.258 7.69723 39.0862 6.41968C38.898 5.01994 38.4587 3.56627 37.266 2.37353C36.0732 1.18079 34.6196 0.741465 33.2198 0.553274C31.9422 0.381503 30.367 0.381667 28.6279 0.381848L28.4577 0.38186Z" fill="#1E2236"/>
<path fill-rule="evenodd" clip-rule="evenodd" d="M13.0227 8.30273C13.7004 8.30273 14.2497 8.8521 14.2497 9.52979V11.8083H16.5288C17.2065 11.8083 17.7559 12.3577 17.7559 13.0354C17.7559 13.7131 17.2065 14.2624 16.5288 14.2624H14.2497V16.5415C14.2497 17.2192 13.7004 17.7686 13.0227 17.7686C12.345 17.7686 11.7956 17.2192 11.7956 16.5415V14.2624H9.51709C8.83941 14.2624 8.29004 13.7131 8.29004 13.0354C8.29004 12.3577 8.83941 11.8083 9.51709 11.8083H11.7956V9.52979C11.7956 8.8521 12.345 8.30273 13.0227 8.30273Z" fill="#1E2236"/>
<path fill-rule="evenodd" clip-rule="evenodd" d="M13.0227 8.30273C13.7004 8.30273 14.2497 8.8521 14.2497 9.52979V11.8083H16.5288C17.2065 11.8083 17.7559 12.3577 17.7559 13.0354C17.7559 13.7131 17.2065 14.2624 16.5288 14.2624H14.2497V16.5415C14.2497 17.2192 13.7004 17.7686 13.0227 17.7686C12.345 17.7686 11.7956 17.2192 11.7956 16.5415V14.2624H9.51709C8.83941 14.2624 8.29004 13.7131 8.29004 13.0354C8.29004 12.3577 8.83941 11.8083 9.51709 11.8083H11.7956V9.52979C11.7956 8.8521 12.345 8.30273 13.0227 8.30273Z" fill="white"/>
<path fill-rule="evenodd" clip-rule="evenodd" d="M24.7437 9.70508C25.615 9.70508 26.3213 10.4114 26.3213 11.2827V11.3002C26.3213 12.1715 25.615 12.8779 24.7437 12.8779C23.8723 12.8779 23.166 12.1715 23.166 11.3002V11.2827C23.166 10.4114 23.8723 9.70508 24.7437 9.70508Z" fill="#1E2236"/>
<path fill-rule="evenodd" clip-rule="evenodd" d="M24.7437 9.70508C25.615 9.70508 26.3213 10.4114 26.3213 11.2827V11.3002C26.3213 12.1715 25.615 12.8779 24.7437 12.8779C23.8723 12.8779 23.166 12.1715 23.166 11.3002V11.2827C23.166 10.4114 23.8723 9.70508 24.7437 9.70508Z" fill="white"/>
<path fill-rule="evenodd" clip-rule="evenodd" d="M30.0024 13.2104C30.8737 13.2104 31.5801 13.9168 31.5801 14.7881V14.8056C31.5801 15.6769 30.8737 16.3833 30.0024 16.3833C29.1311 16.3833 28.4248 15.6769 28.4248 14.8056V14.7881C28.4248 13.9168 29.1311 13.2104 30.0024 13.2104Z" fill="#1E2236"/>
<path fill-rule="evenodd" clip-rule="evenodd" d="M30.0024 13.2104C30.8737 13.2104 31.5801 13.9168 31.5801 14.7881V14.8056C31.5801 15.6769 30.8737 16.3833 30.0024 16.3833C29.1311 16.3833 28.4248 15.6769 28.4248 14.8056V14.7881C28.4248 13.9168 29.1311 13.2104 30.0024 13.2104Z" fill="white"/>
</svg>
