<svg width="52" height="53" viewBox="0 0 52 53" fill="none" xmlns="http://www.w3.org/2000/svg">
<path d="M22.2873 2.65427C24.5847 1.32783 27.4153 1.32783 29.7128 2.65427L44.7946 11.3618C47.0921 12.6882 48.5074 15.1396 48.5074 17.7925V35.2075C48.5074 37.8604 47.0921 40.3117 44.7946 41.6382L29.7128 50.3457C27.4153 51.6721 24.5847 51.6721 22.2873 50.3457L7.2054 41.6382C4.90794 40.3117 3.49264 37.8604 3.49264 35.2075V17.7925C3.49264 15.1396 4.90794 12.6882 7.2054 11.3618L22.2873 2.65427Z" fill="#3B4550"/>
<path d="M19.324 31.6291C19.324 35.6957 22.2172 36.7681 24.3011 36.8085C24.5034 36.8287 24.7058 36.6669 24.7058 36.4646L24.7462 35.635C24.7665 35.4327 24.6248 35.2911 24.4832 35.2709C22.723 34.9674 21.2663 33.7535 21.2663 31.6291V29.2012C21.2663 27.3601 20.194 26.7936 19.6275 26.5508V26.4901C20.0119 26.3283 21.2663 25.6808 21.2663 23.7992V21.3916C21.2663 19.2672 22.723 18.0331 24.4832 17.7296C24.6248 17.7093 24.7665 17.5273 24.7462 17.3654L24.7058 16.5359C24.7058 16.2931 24.5237 16.1717 24.3011 16.1919C22.2172 16.2324 19.324 17.3249 19.324 21.3916V24.305C19.324 25.1952 18.2315 25.7415 17.9078 25.782C17.7661 25.8224 17.6245 25.9438 17.6245 26.1057V26.915C17.6245 27.0768 17.7661 27.2589 17.928 27.2792C18.4136 27.3601 19.324 27.8457 19.324 28.7561V31.6291Z" fill="white"/>
<path d="M30.7339 31.6291C30.7339 33.7535 29.2771 34.9674 27.5169 35.2709C27.3753 35.2911 27.2337 35.4327 27.2539 35.635L27.2944 36.4646C27.2944 36.6669 27.4967 36.8287 27.699 36.8085C29.7829 36.7681 32.6761 35.6957 32.6761 31.6291V28.7561C32.6761 27.8457 33.5866 27.3601 34.0722 27.2792C34.234 27.2589 34.3756 27.0768 34.3756 26.915V26.1057C34.3756 25.9438 34.234 25.8224 34.0924 25.782C33.7687 25.7415 32.6761 25.1952 32.6761 24.305V21.3916C32.6761 17.3249 29.7829 16.2324 27.699 16.1919C27.4765 16.1717 27.2944 16.2931 27.2944 16.5359L27.2539 17.3654C27.2337 17.5273 27.3753 17.7093 27.5169 17.7296C29.2771 18.0331 30.7339 19.2672 30.7339 21.3916V23.7992C30.7339 25.6808 31.9883 26.3283 32.3727 26.4901V26.5508C31.8062 26.7936 30.7339 27.3601 30.7339 29.2012V31.6291Z" fill="white"/>
<path d="M25.1204 21.4325C25.1204 21.1369 25.1204 20.9891 25.178 20.8762C25.2286 20.7769 25.3093 20.6962 25.4086 20.6456C25.5215 20.5881 25.6693 20.5881 25.9649 20.5881H26.0353C26.3309 20.5881 26.4787 20.5881 26.5916 20.6456C26.6909 20.6962 26.7716 20.7769 26.8222 20.8762C26.8797 20.9891 26.8797 21.1369 26.8797 21.4325V24.9343C26.8797 25.2299 26.8797 25.3777 26.8222 25.4906C26.7716 25.5899 26.6909 25.6706 26.5916 25.7212C26.4787 25.7788 26.3309 25.7788 26.0353 25.7788H25.9649C25.6693 25.7788 25.5215 25.7788 25.4086 25.7212C25.3093 25.6706 25.2286 25.5899 25.178 25.4906C25.1204 25.3777 25.1204 25.2299 25.1204 24.9343V21.4325Z" fill="white"/>
</svg>
