<svg viewBox="0 0 22 22"><path fill-rule="evenodd" clip-rule="evenodd" d="M10.492 1.987a.917.917 0 0 1 1.016 0l8.25 5.5a.917.917 0 0 1 0 1.526l-8.25 5.5a.917.917 0 0 1-1.016 0L2.258 9.024a.917.917 0 0 1 0-1.548l8.233-5.489ZM4.402 8.25 11 12.648l6.598-4.398L11 3.852 4.403 8.25Z"/><path fill-rule="evenodd" clip-rule="evenodd" d="M2.75 7.333c.506 0 .917.41.917.917v9.167c0 .506.41.916.916.916h12.834c.506 0 .916-.41.916-.916V8.25a.917.917 0 1 1 1.834 0v9.167a2.75 2.75 0 0 1-2.75 2.75H4.583a2.75 2.75 0 0 1-2.75-2.75V8.25c0-.506.41-.917.917-.917Z"/><path fill-rule="evenodd" clip-rule="evenodd" d="M8.898 11.268a.917.917 0 0 1 0 1.297l-5.5 5.5a.917.917 0 1 1-1.296-1.297l5.5-5.5a.917.917 0 0 1 1.296 0ZM13.102 11.268a.917.917 0 0 1 1.296 0l5.5 5.5a.917.917 0 1 1-1.296 1.297l-5.5-5.5a.917.917 0 0 1 0-1.296Z"/></svg>