<svg viewBox="0 0 22 22" fill="none"><path fill-rule="evenodd" clip-rule="evenodd" d="M8.656 2.554a12.894 12.894 0 0 1 5.658 0c1.069-.666 1.91-.982 2.54-1.119a3.63 3.63 0 0 1 .848-.091 2.222 2.222 0 0 1 .405.047l.017.004.007.002h.004l.002.001-.254.936.255-.935a.97.97 0 0 1 .63.538 5.04 5.04 0 0 1 .296 3.27 5.429 5.429 0 0 1 1.146 3.33v.002c0 2.43-.722 4.113-1.983 5.204-.848.735-1.868 1.136-2.889 1.364.038.29.032.622.028.919l-.003.268v3.393a.97.97 0 1 1-1.94 0v-3.393c0-.128.002-.247.004-.351v-.02l.003-.259c0-.167-.006-.26-.017-.325a.31.31 0 0 0-.034-.107.886.886 0 0 0-.156-.191.97.97 0 0 1 .582-1.65c1.293-.138 2.385-.448 3.153-1.114.726-.629 1.313-1.709 1.313-3.737a3.49 3.49 0 0 0-.986-2.428.97.97 0 0 1-.212-1.017 3.102 3.102 0 0 0 .128-1.75c-.425.102-1.142.369-2.173 1.056a.97.97 0 0 1-.782.132 10.955 10.955 0 0 0-5.522 0 .97.97 0 0 1-.782-.132c-1.03-.687-1.748-.954-2.173-1.056a3.102 3.102 0 0 0 .128 1.75.97.97 0 0 1-.212 1.017 3.49 3.49 0 0 0-.986 2.427c0 2.03.586 3.11 1.313 3.738.768.666 1.86.976 3.153 1.115a.97.97 0 0 1 .582 1.649c-.162.162-.209.28-.23.394-.03.154-.026.361.021.74.005.039.008.08.008.12v3.392a.97.97 0 0 1-1.939 0v-.72c-.634.082-1.207.047-1.727-.098-.854-.24-1.448-.741-1.889-1.248-.271-.312-.545-.71-.758-1.02-.091-.132-.171-.248-.235-.334-.28-.38-.427-.472-.512-.497a.97.97 0 0 1 .547-1.86c.74.218 1.211.78 1.524 1.204.15.201.268.375.376.535.169.248.315.462.521.7.287.33.578.549.948.652.275.077.66.108 1.205.002v-.65c-.045-.375-.08-.81 0-1.252-1.013-.228-2.023-.63-2.864-1.358C3.482 12.652 2.76 10.97 2.76 8.54v-.001a5.43 5.43 0 0 1 1.145-3.33 5.041 5.041 0 0 1 .297-3.271.97.97 0 0 1 .63-.538l.254.935a50.269 50.269 0 0 1-.253-.936h.002l.004-.001.007-.002.017-.004a1.291 1.291 0 0 1 .134-.026c.073-.01.163-.019.27-.021a3.63 3.63 0 0 1 .85.091c.63.137 1.47.453 2.539 1.12Z"/></svg>