<svg viewBox="0 0 22 22"><path fill-rule="evenodd" clip-rule="evenodd" d="M2.25 5.167A2.917 2.917 0 0 1 5.167 2.25h11.666a2.917 2.917 0 0 1 2.917 2.917v11.666a2.917 2.917 0 0 1-2.917 2.917H5.167a2.917 2.917 0 0 1-2.917-2.917V5.167Zm2.917-.973a.972.972 0 0 0-.973.973v11.666c0 .537.436.973.973.973h11.666a.972.972 0 0 0 .973-.973V5.167a.972.972 0 0 0-.973-.973H5.167Z"/><path fill-rule="evenodd" clip-rule="evenodd" d="M7.111 9.056c.537 0 .972.435.972.972v4.86a.972.972 0 0 1-1.944 0v-4.86c0-.537.435-.972.972-.972ZM7.111 6.139c.537 0 .972.435.972.972v.01a.972.972 0 0 1-1.944 0v-.01c0-.537.435-.972.972-.972ZM11 9.056c.537 0 .972.435.972.972v4.86a.972.972 0 1 1-1.944 0v-4.86c0-.537.435-.972.972-.972Z"/><path fill-rule="evenodd" clip-rule="evenodd" d="M10.028 11.972a2.917 2.917 0 0 1 5.833 0v2.917a.972.972 0 0 1-1.945 0v-2.917a.972.972 0 0 0-1.944 0 .972.972 0 1 1-1.944 0Z"/></svg>