<svg width="22" height="22" viewBox="0 0 22 22"><path fill-rule="evenodd" clip-rule="evenodd" d="M3.7 5.475A13.667 13.667 0 0 0 16.475 18.25a.833.833 0 0 0 .808-.833v-2.99l-3.164-1.266-.937 1.562a1 1 0 0 1-1.3.382 11.083 11.083 0 0 1-5.037-5.038 1 1 0 0 1 .382-1.3l1.562-.936-1.266-3.164h-2.99c-.452 0-.82.36-.833.808Zm.833-2.808A2.833 2.833 0 0 0 1.702 5.56c.48 7.904 6.783 14.207 14.687 14.687l.061.002a2.833 2.833 0 0 0 2.833-2.833V13.75a1 1 0 0 0-.628-.928l-4.584-1.834a1 1 0 0 0-1.229.414l-.877 1.462a9.085 9.085 0 0 1-2.88-2.88l1.463-.877a1 1 0 0 0 .414-1.228L9.128 3.295a1 1 0 0 0-.928-.628H4.533Z"/><path fill-rule="evenodd" clip-rule="evenodd" d="M12.7 6.417a1 1 0 0 1 1-1 2.833 2.833 0 0 1 2.833 2.833 1 1 0 1 1-2 0 .833.833 0 0 0-.833-.833 1 1 0 0 1-1-1Z"/><path fill-rule="evenodd" clip-rule="evenodd" d="M12.7 2.75a1 1 0 0 1 1-1 6.5 6.5 0 0 1 6.5 6.5 1 1 0 0 1-2 0 4.5 4.5 0 0 0-4.5-4.5 1 1 0 0 1-1-1Z"/></svg>