<svg width="48" height="48" viewBox="0 0 48 48" fill="none" xmlns="http://www.w3.org/2000/svg"><path d="M20.358.961a7.382 7.382 0 0 1 7.284 0l14.796 8.413c2.253 1.282 3.642 3.65 3.642 6.213v16.826c0 2.563-1.389 4.931-3.642 6.213l-14.796 8.413a7.381 7.381 0 0 1-7.284 0L5.562 38.626c-2.254-1.282-3.642-3.65-3.642-6.213V15.587c0-2.563 1.388-4.931 3.642-6.213L20.358.961Z" fill="url(#paint0_linear_439_125)"/><path fill-rule="evenodd" clip-rule="evenodd" d="m28.562 46.516-.92.523a7.381 7.381 0 0 1-7.284 0L5.562 38.626c-2.254-1.282-3.642-3.65-3.642-6.213V15.587c0-2.563 1.388-4.931 3.642-6.213l1.303-.74 21.697 37.882ZM40.727 39.599l1.71-.973c2.255-1.282 3.643-3.65 3.643-6.213V15.587c0-2.563-1.389-4.931-3.642-6.213L27.642.961a7.382 7.382 0 0 0-7.284 0l-1.329.756 21.698 37.882Z" fill="#4B5375" fill-opacity=".83" style="mix-blend-mode:screen"/><path fill-rule="evenodd" clip-rule="evenodd" d="M46.08 20.094 9.658 40.955l-4.096-2.33c-2.254-1.28-3.642-3.649-3.642-6.212V15.587c0-2.563 1.388-4.931 3.642-6.213L20.358.961a7.382 7.382 0 0 1 7.284 0l14.796 8.413c2.253 1.282 3.642 3.65 3.642 6.213v4.507Z" fill="#2F3E81" fill-opacity=".83" style="mix-blend-mode:screen"/><path fill-rule="evenodd" clip-rule="evenodd" d="m37.59 6.618 4.848 2.756c2.253 1.282 3.642 3.65 3.642 6.213v16.826c0 2.563-1.389 4.931-3.642 6.213l-14.796 8.413a7.381 7.381 0 0 1-7.284 0L5.562 38.626c-2.254-1.282-3.642-3.65-3.642-6.213v-5.364L37.59 6.618Z" fill="#1B294D" fill-opacity=".38"/><defs><linearGradient id="paint0_linear_439_125" x1="24" y1="0" x2="24" y2="48" gradientUnits="userSpaceOnUse"><stop stop-color="#363C55"/><stop offset="1" stop-color="#283A88"/></linearGradient></defs></svg>