<svg width="31" height="31" viewBox="0 0 31 31"><title>LinkedIn</title><path d="M31 2.28v26.44A2.28 2.28 0 0 1 28.72 31H2.28A2.28 2.28 0 0 1 0 28.72V2.28A2.28 2.28 0 0 1 2.28 0h26.44A2.28 2.28 0 0 1 31 2.28ZM9.118 11.852h-4.56V26.44h4.56V11.853Zm.41-5.015A2.626 2.626 0 0 0 6.92 4.194h-.082a2.644 2.644 0 1 0 0 5.288 2.626 2.626 0 0 0 2.69-2.562v-.082Zm16.913 10.74c0-4.385-2.79-6.09-5.562-6.09a5.198 5.198 0 0 0-4.613 2.353h-.128v-1.988h-4.285V26.44h4.559v-7.759a3.027 3.027 0 0 1 2.735-3.264h.173c1.45 0 2.526.912 2.526 3.21v7.813h4.559l.036-8.862Z" fill="#fff"/></svg>