<svg width="22" height="22" viewBox="0 0 22 22"><path fill-rule="evenodd" clip-rule="evenodd" d="M7.333 9.167a3.667 3.667 0 1 1 7.333 0 3.667 3.667 0 0 1-7.333 0ZM11 7.333A1.833 1.833 0 1 0 11 11a1.833 1.833 0 0 0 0-3.667Z"/><path fill-rule="evenodd" clip-rule="evenodd" d="M16.981 17.946A9.167 9.167 0 1 0 11 20.166a9.13 9.13 0 0 0 5.982-2.22ZM11 3.666a7.333 7.333 0 0 0-5.606 12.062 4.584 4.584 0 0 1 3.772-1.978h3.667c1.535 0 2.933.763 3.772 1.978A7.333 7.333 0 0 0 11 3.667Zm4.233 13.323a2.75 2.75 0 0 0-2.4-1.406H9.166a2.75 2.75 0 0 0-2.4 1.406A7.3 7.3 0 0 0 11 18.333a7.3 7.3 0 0 0 4.233-1.344Z"/></svg>