<svg viewBox="0 0 251 26" fill="none"><title>Reddit Publish Date</title><path fill="#fff" d="M4.934 8.973h16.648v12.692H4.934z"/><path fill-rule="evenodd" clip-rule="evenodd" d="M2.645 5.397a1.73 1.73 0 1 0 3.46-.003V2.83h.41v2.567a1.73 1.73 0 1 0 3.46-.003V2.83h.364V5.37a1.7 1.7 0 0 0 3.396 0V4.152l1.121.4a4.1 4.1 0 0 0 4.082 3.75 4.098 4.098 0 0 0 3.971-5.096A3.764 3.764 0 0 1 25.04 6.59v14.657a3.774 3.774 0 0 1-3.765 3.761H4.7a3.777 3.777 0 0 1-3.765-3.761V6.59c0-1.314.684-2.472 1.709-3.144v1.95Zm5.487 5.322a2.327 2.327 0 0 0-2.33 2.324A2.328 2.328 0 1 0 9.778 11.4a2.328 2.328 0 0 0-1.645-.68Zm4.663 10.383c3.775 0 5.448-1.698 5.516-1.77a.59.59 0 0 0-.016-.833.599.599 0 0 0-.841.01c-.013.012-1.43 1.405-4.66 1.405-3.174 0-4.44-1.347-4.473-1.383a.595.595 0 0 0-.9.776c.061.075 1.579 1.795 5.374 1.795Zm3.408-6.417a2.325 2.325 0 1 0 1.647-3.97 2.328 2.328 0 0 0-2.33 2.325c0 .617.246 1.209.683 1.645Z" fill="#FF5E38"/><path d="M18.938 1.048a3.17 3.17 0 0 0-2.632 1.409l-4.012-1.435a.765.765 0 0 0-1.024.72v3.629a.768.768 0 0 0 1.534 0V2.83l2.986 1.068a3.167 3.167 0 0 0 3.148 3.473 3.167 3.167 0 0 0 3.165-3.162 3.167 3.167 0 0 0-3.165-3.16Zm0 4.79c-.9 0-1.63-.73-1.63-1.629a1.631 1.631 0 0 1 3.261 0c0 .9-.73 1.63-1.63 1.63Zm-10.693.357a.798.798 0 0 1-.799-.798v-3.67a.798.798 0 1 1 1.599 0v3.667a.799.799 0 0 1-.8.801Zm-3.824 0a.798.798 0 0 1-.799-.798v-3.67a.798.798 0 1 1 1.599 0v3.667a.797.797 0 0 1-.8.801ZM54.006 21.553l-4.186-5.796c2.231-.644 3.52-2.346 3.52-4.715 0-2.99-2.094-4.922-5.567-4.922h-6.049c-.23 0-.368.138-.368.368v15.134c0 .23.138.368.368.368h2.37c.23 0 .367-.138.367-.368V16.01h1.817l3.956 5.75c.115.161.253.23.437.23h3.105c.3 0 .414-.207.23-.437ZM47.59 9.041c1.633 0 2.553.782 2.553 2.093s-.92 2.208-2.553 2.208h-3.128V9.041h3.128ZM61.046 10.49c-3.289 0-5.796 2.668-5.796 6.003 0 3.312 2.553 5.842 5.842 5.842 1.955 0 3.588-.69 4.876-1.863.161-.161.184-.368.023-.529l-1.38-1.518c-.16-.184-.345-.161-.506 0-.736.736-1.656 1.196-2.898 1.196-1.54 0-2.714-1.081-2.92-2.622h7.957c.23 0 .368-.138.391-.368.023-3.726-2.415-6.141-5.589-6.141Zm0 2.737c1.265 0 2.231.874 2.553 2.139h-5.175c.345-1.265 1.311-2.139 2.622-2.139ZM76.751 12.215c-.805-1.081-2-1.725-3.519-1.725-2.852 0-5.358 2.53-5.358 5.934 0 3.404 2.507 5.911 5.359 5.911 1.517 0 2.713-.621 3.518-1.702v.989c0 .23.138.368.368.368h2.255c.23 0 .368-.138.368-.368V5.568c0-.23-.139-.368-.368-.368H77.12c-.23 0-.369.138-.369.368v6.647Zm-2.944 7.406c-1.701 0-2.92-1.357-2.92-3.197s1.219-3.22 2.92-3.22c1.725 0 2.944 1.38 2.944 3.22 0 1.84-1.219 3.197-2.944 3.197ZM90.88 12.215c-.806-1.081-2.002-1.725-3.52-1.725-2.852 0-5.359 2.53-5.359 5.934 0 3.404 2.507 5.911 5.36 5.911 1.517 0 2.713-.621 3.518-1.702v.989c0 .23.138.368.368.368h2.254c.23 0 .368-.138.368-.368V5.568c0-.23-.138-.368-.368-.368h-2.254c-.23 0-.368.138-.368.368v6.647Zm-2.945 7.406c-1.702 0-2.92-1.357-2.92-3.197s1.218-3.22 2.92-3.22c1.725 0 2.944 1.38 2.944 3.22 0 1.84-1.219 3.197-2.944 3.197ZM98.636 8.972a1.767 1.767 0 0 0 1.794-1.794c0-.943-.782-1.725-1.794-1.725-.989 0-1.77.782-1.77 1.725 0 1.012.781 1.794 1.77 1.794Zm1.495 12.65V11.203c0-.23-.138-.368-.368-.368H97.51c-.23 0-.368.138-.368.368v10.419c0 .23.138.368.368.368h2.254c.23 0 .368-.138.368-.368ZM110.581 18.931c-.529.391-1.173.713-1.978.713-1.311 0-1.61-.897-1.61-2.116v-4.071h3.266c.23 0 .368-.138.368-.368v-1.886c0-.23-.138-.368-.368-.368h-3.266V7.73c0-.23-.138-.368-.368-.368h-2.254c-.23 0-.368.138-.368.368v3.105h-1.449c-.23 0-.368.138-.368.368v1.886c0 .23.138.368.368.368h1.449v4.531c0 2.875 1.403 4.347 4.048 4.347 1.564 0 2.783-.46 3.611-1.035.184-.115.23-.276.138-.483l-.713-1.748c-.092-.253-.276-.276-.506-.138Z" fill="#FF5E38"/><path d="M117.813 6.488v15.134c0 .23.138.368.368.368h2.369c.23 0 .368-.138.368-.368V16.7h3.427c3.473 0 5.566-2.07 5.566-5.313 0-3.22-2.093-5.267-5.566-5.267h-6.164c-.23 0-.368.138-.368.368Zm3.105 7.314V9.041h3.151c1.702 0 2.645.943 2.645 2.369 0 1.426-.943 2.392-2.645 2.392h-3.151ZM139.329 17.39c-.161 1.702-1.242 2.438-2.369 2.438-1.196 0-1.863-.621-1.863-2.369v-6.256c0-.23-.138-.368-.368-.368h-2.254c-.23 0-.368.138-.368.368v6.854c0 3.22 1.84 4.278 3.795 4.278 1.495 0 2.737-.69 3.427-1.955v1.242c0 .23.138.368.368.368h2.254c.23 0 .368-.138.368-.368V11.203c0-.23-.138-.368-.368-.368h-2.254c-.23 0-.368.138-.368.368v6.187ZM151.912 10.49c-1.518 0-2.737.644-3.542 1.725V5.568c0-.23-.138-.368-.368-.368h-2.254c-.23 0-.368.138-.368.368v16.054c0 .23.138.368.368.368h2.254c.23 0 .368-.138.368-.368V20.61c.805 1.104 2.024 1.725 3.542 1.725 2.829 0 5.359-2.507 5.359-5.911 0-3.404-2.53-5.934-5.359-5.934Zm-.598 9.131c-1.702 0-2.921-1.357-2.921-3.197s1.219-3.22 2.921-3.22c1.702 0 2.921 1.38 2.921 3.22 0 1.84-1.219 3.197-2.921 3.197ZM159.88 21.99h2.254c.23 0 .368-.138.368-.368V5.568c0-.23-.138-.368-.368-.368h-2.254c-.23 0-.368.138-.368.368v16.054c0 .23.138.368.368.368ZM167.232 8.972a1.768 1.768 0 0 0 1.794-1.794c0-.943-.782-1.725-1.794-1.725-.989 0-1.771.782-1.771 1.725 0 1.012.782 1.794 1.771 1.794Zm1.495 12.65V11.203c0-.23-.138-.368-.368-.368h-2.254c-.23 0-.368.138-.368.368v10.419c0 .23.138.368.368.368h2.254c.23 0 .368-.138.368-.368ZM175.703 22.335c2.484 0 4.715-1.15 4.715-3.68 0-2.806-2.346-3.312-4.393-3.611-1.633-.23-2.185-.575-2.185-1.242 0-.759.759-1.012 1.702-1.012 1.196 0 2.139.437 2.829 1.15.184.184.368.161.529-.023l1.104-1.38c.138-.184.115-.368-.046-.529-1.15-1.012-2.737-1.518-4.485-1.518-2.829 0-4.255 1.633-4.255 3.45 0 2.461 2.024 3.289 4.232 3.611 1.426.207 2.346.345 2.346 1.242 0 .851-.874 1.219-2.024 1.219-1.357 0-2.461-.483-3.197-1.334-.161-.207-.368-.207-.506 0l-1.081 1.518c-.138.184-.138.368.046.506 1.196 1.104 2.691 1.633 4.669 1.633ZM189.221 10.49c-1.541 0-2.806.736-3.519 2.001V5.568c0-.23-.138-.368-.368-.368h-2.254c-.23 0-.368.138-.368.368v16.054c0 .23.138.368.368.368h2.254c.23 0 .368-.138.368-.368v-5.773c.023-2.001 1.173-2.852 2.484-2.852 1.265 0 1.955.621 1.955 2.369v6.256c0 .23.138.368.368.368h2.254c.23 0 .368-.138.368-.368v-6.831c0-3.243-1.909-4.301-3.91-4.301ZM198.809 6.488v15.134c0 .23.138.368.368.368h6.233c4.922 0 8.188-3.266 8.188-7.981 0-4.6-3.266-7.89-8.188-7.89h-6.233c-.23.001-.368.139-.368.369Zm3.105 12.581V9.041h3.289c3.151 0 5.129 1.955 5.129 4.968 0 3.128-1.978 5.06-5.129 5.06h-3.289ZM224.344 12.215c-.805-1.081-2.001-1.725-3.519-1.725-2.852 0-5.359 2.53-5.359 5.934 0 3.404 2.507 5.911 5.359 5.911 1.518 0 2.714-.621 3.519-1.702v.989c0 .23.138.368.368.368h2.254c.23 0 .368-.138.368-.368V11.203c0-.23-.138-.368-.368-.368h-2.254c-.23 0-.368.138-.368.368v1.012Zm-2.944 7.406c-1.702 0-2.921-1.357-2.921-3.197s1.219-3.22 2.921-3.22c1.725 0 2.944 1.38 2.944 3.22 0 1.84-1.219 3.197-2.944 3.197ZM237.756 18.931c-.529.391-1.173.713-1.978.713-1.311 0-1.61-.897-1.61-2.116v-4.071h3.266c.23 0 .368-.138.368-.368v-1.886c0-.23-.138-.368-.368-.368h-3.266V7.73c0-.23-.138-.368-.368-.368h-2.254c-.23 0-.368.138-.368.368v3.105h-1.449c-.23 0-.368.138-.368.368v1.886c0 .23.138.368.368.368h1.449v4.531c0 2.875 1.403 4.347 4.048 4.347 1.564 0 2.783-.46 3.611-1.035.184-.115.23-.276.138-.483l-.713-1.748c-.092-.253-.276-.276-.506-.138ZM245.363 10.49c-3.289 0-5.796 2.668-5.796 6.003 0 3.312 2.553 5.842 5.842 5.842 1.955 0 3.588-.69 4.876-1.863.161-.161.184-.368.023-.529l-1.38-1.518c-.161-.184-.345-.161-.506 0-.736.736-1.656 1.196-2.898 1.196-1.541 0-2.714-1.081-2.921-2.622h7.958c.23 0 .368-.138.391-.368.023-3.726-2.415-6.141-5.589-6.141Zm0 2.737c1.265 0 2.231.874 2.553 2.139h-5.175c.345-1.265 1.311-2.139 2.622-2.139Z" fill="#fff"/></svg>