<svg xmlns="http://www.w3.org/2000/svg" width="750" height="342" fill="none" viewBox="0 0 750 342"><path fill="#FF2964" fill-opacity=".14" d="m302.256 53.642-22.147 214.713 177.28 13.586 14.422-155.635-49.495-61.872-120.06-10.792Z"/><path fill="#FF2964" fill-rule="evenodd" d="m259.337 282.073 212.928 15.516 19.168-176.911-63.073-71.784-143.33-9.84-25.693 243.019Zm137.482-143.999 65.768 5.879-14.293 127.277-161.351-12.56 22.092-192.857 100.209 5.728-12.425 66.533Z" clip-rule="evenodd"/><path fill="#FF2964" d="m367.418 147.008 9.81-8.004-12.802-17.314 19.015-11.193-7.003-12.797-21.132 11.659-12.789-17.301-14.764 10.738 13.052 14.55-18.449 10.178 8.894 13.664 20.266-11.917 15.902 17.737Z"/><path fill="#FF2964" fill-rule="evenodd" d="m332.971 228.517 1.922 2.326 2.183-2.083c10.88-10.382 26.055-14.512 39.485-13.618 13.618.907 24.37 6.831 27.645 15.289l1.214 3.136 2.87-1.754c1.046-.639 4.534-2.396 8.266-4.205 3.695-1.792 7.34-3.495 8.615-4.019l2.813-1.156-1.376-2.712c-9.642-19.003-30.312-27.679-51.104-28.105-20.775-.427-42.539 7.339-54.957 22.306l-1.447 1.745 1.399 1.783c.633.806 1.757 1.86 2.896 2.874a184.11 184.11 0 0 0 3.995 3.423l1.358 1.134c.884.739 1.711 1.43 2.422 2.034.53.451.974.835 1.311 1.14.308.278.446.417.482.453l.008.009Zm4.254-3.669a48.507 48.507 0 0 0-2.088 1.88c4.753-4.536 10.26-7.934 16.076-10.297-4.983 2.024-9.739 4.809-13.988 8.417Z" clip-rule="evenodd"/><path fill="#fff" d="m120.085 271.914 6.969-63.017-114.846-12.456 4.055-37.388L135.49 28.105l57.589 4.116-15.231 140.557 33.791 3.664-4.71 41.111-33.543-3.631-6.735 61.411-46.566-3.419ZM140.81 82.066 69.263 161l62.253 6.752 9.294-85.687ZM645.933 310.148l6.969-63.017-114.728-12.444 4.055-37.387 119.12-130.96 57.531 4.11-15.231 140.557 33.756 3.661-4.709 41.11-33.51-3.627-6.734 61.411-46.519-3.414ZM666.658 120.3l-71.483 78.942 62.189 6.745 9.294-85.687Z"/></svg>