<svg width="50" height="50" viewBox="0 0 50 50" fill="none" xmlns="http://www.w3.org/2000/svg">
<path d="M21.2885 1.15425C23.5852 -0.172185 26.4148 -0.172186 28.7115 1.15425L43.7885 9.86177C46.0852 11.1882 47.5 13.6396 47.5 16.2924V33.7075C47.5 36.3604 46.0852 38.8117 43.7885 40.1382L28.7115 48.8457C26.4148 50.1721 23.5852 50.1721 21.2885 48.8457L6.21154 40.1382C3.91483 38.8117 2.5 36.3604 2.5 33.7075V16.2924C2.5 13.6396 3.91483 11.1882 6.21154 9.86177L21.2885 1.15425Z" fill="#2D3248"/>
<path d="M18.324 30.1291C18.324 34.1957 21.2172 35.2681 23.3011 35.3085C23.5034 35.3287 23.7058 35.1669 23.7058 34.9646L23.7462 34.135C23.7665 33.9327 23.6248 33.7911 23.4832 33.7709C21.723 33.4674 20.2663 32.2535 20.2663 30.1291V27.7012C20.2663 25.8601 19.194 25.2936 18.6275 25.0508V24.9901C19.0119 24.8283 20.2663 24.1808 20.2663 22.2992V19.8916C20.2663 17.7672 21.723 16.5331 23.4832 16.2296C23.6248 16.2093 23.7665 16.0273 23.7462 15.8654L23.7058 15.0359C23.7058 14.7931 23.5237 14.6717 23.3011 14.6919C21.2172 14.7324 18.324 15.8249 18.324 19.8916V22.805C18.324 23.6952 17.2315 24.2415 16.9078 24.282C16.7661 24.3224 16.6245 24.4438 16.6245 24.6057V25.415C16.6245 25.5768 16.7661 25.7589 16.928 25.7792C17.4136 25.8601 18.324 26.3457 18.324 27.2561V30.1291Z" fill="white"/>
<path d="M29.7339 30.1291C29.7339 32.2535 28.2771 33.4674 26.5169 33.7709C26.3753 33.7911 26.2337 33.9327 26.2539 34.135L26.2944 34.9646C26.2944 35.1669 26.4967 35.3287 26.699 35.3085C28.783 35.2681 31.6762 34.1957 31.6762 30.1291V27.2561C31.6762 26.3457 32.5866 25.8601 33.0722 25.7792C33.234 25.7589 33.3757 25.5768 33.3757 25.415V24.6057C33.3757 24.4438 33.234 24.3224 33.0924 24.282C32.7687 24.2415 31.6762 23.6952 31.6762 22.805V19.8916C31.6762 15.8249 28.783 14.7324 26.699 14.6919C26.4765 14.6717 26.2944 14.7931 26.2944 15.0359L26.2539 15.8654C26.2337 16.0273 26.3753 16.2093 26.5169 16.2296C28.2771 16.5331 29.7339 17.7672 29.7339 19.8916V22.2992C29.7339 24.1808 30.9883 24.8283 31.3727 24.9901V25.0508C30.8062 25.2936 29.7339 25.8601 29.7339 27.7012V30.1291Z" fill="white"/>
<path d="M24.1204 19.9325C24.1204 19.6369 24.1204 19.4891 24.178 19.3762C24.2286 19.2769 24.3093 19.1962 24.4086 19.1456C24.5215 19.0881 24.6693 19.0881 24.9649 19.0881H25.0353C25.3309 19.0881 25.4787 19.0881 25.5916 19.1456C25.6909 19.1962 25.7716 19.2769 25.8222 19.3762C25.8797 19.4891 25.8797 19.6369 25.8797 19.9325V23.4343C25.8797 23.7299 25.8797 23.8777 25.8222 23.9906C25.7716 24.0899 25.6909 24.1706 25.5916 24.2212C25.4787 24.2788 25.3309 24.2788 25.0353 24.2788H24.9649C24.6693 24.2788 24.5215 24.2788 24.4086 24.2212C24.3093 24.1706 24.2286 24.0899 24.178 23.9906C24.1204 23.8777 24.1204 23.7299 24.1204 23.4343V19.9325Z" fill="white"/>
</svg>
